<?xml version="1.0" encoding="utf-8"?>

<!DOCTYPE svg PUBLIC "-//W3C//DTD SVG 1.1//EN" "http://www.w3.org/Graphics/SVG/1.1/DTD/svg11.dtd">
<svg version="1.1" id="Layer_1" xmlns="http://www.w3.org/2000/svg" xmlns:xlink="http://www.w3.org/1999/xlink" x="0px" y="0px"
	 viewBox="0 0 1129.915 1669.014" enable-background="new 0 0 1129.915 1669.014" xml:space="preserve">
<g>
	<path fill="#7F4E13" stroke="#7F4E13" stroke-width="0.5" d="M530.017,34.561c27.325,17.683,57.457,30.627,88.414,40.467
		c36.257,11.689,73.752,19.235,111.495,24.138c31.733,4.805,64.242,3.649,95.497,11.706c30.841,7.529,61.006,22.421,81.611,47.17
		c19.928,23.296,29.587,53.973,30.726,84.302c20.242,11.954,36.604,30.049,46.576,51.348c15.536,31.337,17.831,67.66,12.234,101.754
		c-3.649,23.362-10.418,46.097-17.98,68.453c-3.797,10.286-6.802,20.869-11.128,30.957
		c-59.025-60.924-108.755-130.796-148.677-205.622c-4.673-7.81-7.76-16.478-12.763-24.039
		c-26.021,10.335-52.437,19.879-79.663,26.598c-38.205,10.038-77.566,15.041-116.96,17.171c-43.885,1.205-88.116,0.512-131.39-7.644
		c-7.265-1.123-14.315-3.649-21.662-3.996c-9.345,7.331-15.867,17.584-22.207,27.473c-20.242,33.582-26.813,72.927-33.269,110.983
		c-4.838-6.307-7.43-13.902-10.319-21.183c-12.664-34.969-10.204-73.868,1.502-108.738c2.741-9.642,7.81-18.541,10.6-28.084
		c-25.987-12.647-49.828-30.066-68.337-52.371c-21.398-25.789-36.736-58.166-37.016-92.128
		c32.328,20.192,68.023,35.96,105.948,41.59c-7.941-7.512-16.692-14.282-23.428-22.999c-12.664-15.569-22.834-33.797-26.962-53.56
		c9.708,5.366,18.409,12.399,28.167,17.749c36.884,21.86,77.566,37.429,119.701,45.387c-7.595-7.776-16.395-14.397-23.131-23.016
		c-20.803-25.046-34.474-56.565-36.273-89.223c7.529,4.937,13.753,11.64,21.199,16.742c35.663,26.648,77.005,46.46,120.807,54.963
		C561.832,94.791,540.913,66.954,530.017,34.561z"/>
	<path fill="#FCCFAE" stroke="#FCCFAE" stroke-width="0.5" d="M726.359,291.794c27.226-6.72,53.643-16.263,79.663-26.598
		c5.003,7.562,8.09,16.23,12.763,24.039c39.922,74.825,89.652,144.698,148.677,205.622c4.326-10.088,7.331-20.671,11.128-30.957
		c5.102,1.056,10.336,0.991,15.52,1.585c7.842,1.8,15.603,6.29,19.251,13.77c7.397,12.102,3.764,28.018-4.772,38.552
		c-7.941,9.295-20.555,13.605-32.592,12.581c-7.248,0.215-13.654-3.616-20.638-4.738c-11.425,23.527-25.178,45.916-39.873,67.544
		c-22.24,30.66-47.253,59.85-78.045,82.206c-18.062,13.621-37.908,24.947-58.876,33.45c-22.784,8.982-46.939,14.249-71.292,16.543
		c-1.601,5.036-1.915,10.385-1.767,15.652c8.701,1.899,17.864-0.875,26.417,1.618c-8.883,0.016-17.815-1.024-26.648,0.148
		c-2.312,6.885,1.172,16.18-5.515,21.067c-18.079,15.239-47.666,12.432-62.971-5.382c-3.93-4.441-1.75-10.534-1.783-15.768
		c-8.041-0.875-16.131-0.066-24.171-0.099c7.975-2.51,16.593,0.429,24.716-1.668c1.123-5.366,2.212-10.748,2.823-16.18
		c-0.974-3.071-4.838-2.807-7.314-3.55c-55.706-10.154-107.235-39.146-146.696-79.498c-40.979-42.201-69.955-95.86-82.965-153.217
		c-1.172-4.128-2.295-9.989-7.578-10.286c-14.216-1.635-28.844-5.3-40.038-14.661c-8.321-7.017-14.117-18.277-11.392-29.273
		c2.014-6.439,5.432-12.812,11.078-16.758c8.107-6.191,19.334-6.604,28.811-3.731c2.774,0.908,5.614,1.09,8.272,0.792
		c2.889,7.281,5.481,14.876,10.319,21.183c6.455-38.057,13.027-77.401,33.269-110.983c6.34-9.89,12.862-20.143,22.207-27.473
		c7.347,0.347,14.397,2.873,21.662,3.996c43.274,8.156,87.505,8.85,131.39,7.644C648.793,306.835,688.154,301.832,726.359,291.794
		 M684.191,389.751c-14.083,7.331-23.379,22.173-24.881,37.875c5.911-3.203,10.567-8.338,16.808-11.029
		c19.829-10.286,44.793-9.048,63.73,2.691c5.597,3.137,9.758,8.173,15.008,11.772c-0.083-13.01-5.845-25.773-15.404-34.573
		C724.923,382.866,701.56,379.927,684.191,389.751 M515.207,432.249c17.518-17.319,44.925-23.379,68.056-14.81
		c10.319,3.302,18.607,10.401,26.78,17.204c0.826-25.525-23.23-48.144-48.541-46.708
		C537.776,387.819,515.603,408.275,515.207,432.249 M702.667,420.147c-12.267,2.08-17.154,19.416-7.628,27.473
		c8.371,8.767,25.046,3.401,26.747-8.585C724.526,428.138,713.415,417.323,702.667,420.147 M555.525,424.934
		c-10.236,3.632-13.522,18.277-5.729,25.889c7.909,9.56,25.459,4.722,27.507-7.512C580.423,431.324,566.884,419.767,555.525,424.934
		 M619.85,474.334c4.012,6.406,9.989,11.293,14.859,17.055c4.177,3.963,7.232,9.593,12.564,12.135
		c2.889-15.982,5.614-32.014,7.826-48.079C643.031,461.126,631.721,468.274,619.85,474.334 M733.772,535.323
		c-39.906,5.564-79.779,11.97-119.965,15.256c-25.195,3.104-50.588,2.922-75.882,4.491c-6.456-2.774-14.117-1.156-21.034-1.701
		c2.807,6.555,7.578,11.987,11.739,17.732c11.541,14.744,24.865,28.315,40.418,38.866c26.021,18.161,58.15,27.622,89.866,25.987
		c26.863-1.403,52.074-14.843,70.302-34.259c19.35-19.532,30.676-45.585,36.62-72.101
		C755.104,530.948,744.125,532.269,733.772,535.323z"/>
	<path fill="#7F4E13" stroke="#7F4E13" stroke-width="0.5" d="M684.191,389.751c17.369-9.824,40.731-6.885,55.26,6.736
		c9.56,8.8,15.322,21.563,15.404,34.573c-5.25-3.599-9.411-8.635-15.008-11.772c-18.937-11.739-43.901-12.977-63.73-2.691
		c-6.241,2.691-10.897,7.826-16.808,11.029C660.813,411.924,670.108,397.081,684.191,389.751z"/>
	<path fill="#7E4E12" stroke="#7E4E12" stroke-width="0.5" d="M515.207,432.249c0.396-23.973,22.57-44.43,46.295-44.314
		c25.311-1.436,49.366,21.183,48.541,46.708c-8.173-6.802-16.461-13.902-26.78-17.204
		C560.132,408.87,532.724,414.929,515.207,432.249z"/>
	<path fill="#7F4E13" stroke="#7F4E13" stroke-width="0.5" d="M702.667,420.147c10.748-2.823,21.86,7.991,19.119,18.888
		c-1.701,11.987-18.376,17.353-26.747,8.585C685.512,439.563,690.399,422.227,702.667,420.147z"/>
	<path fill="#7F4E13" stroke="#7F4E13" stroke-width="0.5" d="M555.525,424.934c11.359-5.168,24.898,6.39,21.777,18.376
		c-2.047,12.234-19.598,17.072-27.507,7.512C542.003,443.212,545.289,428.567,555.525,424.934z"/>
	<path fill="#7E4E13" stroke="#7E4E13" stroke-width="0.5" d="M619.85,474.334c11.871-6.059,23.181-13.208,35.25-18.888
		c-2.212,16.065-4.937,32.096-7.826,48.079c-5.333-2.543-8.387-8.173-12.564-12.135C629.839,485.627,623.862,480.74,619.85,474.334z
		"/>
	<path fill="#FDDBC2" stroke="#FDDBC2" stroke-width="0.5" d="M98.565,467.862c5.316-2.741,11.838,0.842,13.654,6.258
		c8.767,19.383,17.006,39.014,25.773,58.398c3.484,4.227,8.338,8.453,13.605,9.89c7.892-5.911,12.102-15.685,20.556-20.886
		c5.911-1.717,10.847,2.675,14.331,6.885c2.526,2.576,3.17,7.298,0.71,10.154c-6.357,7.859-13.555,15.008-19.813,22.933
		c-2.51,2.493-1.767,6.109-1.387,9.262c2.163,14.083,1.255,28.728-3.17,42.3c-1.123,2.278,0.05,4.524,0.809,6.736
		c-22.355,9.56-44.446,19.746-66.9,29.026c-8.701-4.673-17.584-9.064-25.393-15.157c-10.137-8.751-19.499-18.822-24.848-31.304
		c-4.326-9.213-5.878-20.902-0.363-29.933c5.432-7.347,13.076-12.812,21.166-16.907c15.586-8.024,31.832-14.727,47.996-21.414
		c0.908-3.005-0.627-5.977-1.585-8.734c-6.39-15.058-13.39-29.851-19.581-44.991C91.911,475.902,93.612,469.579,98.565,467.862z"/>
	<path fill="#E73A58" stroke="#E73A58" stroke-width="0.5" d="M733.772,535.323c10.352-3.054,21.331-4.375,32.063-5.729
		c-5.944,26.516-17.27,52.569-36.62,72.101c-18.228,19.416-43.439,32.856-70.302,34.259c-31.717,1.635-63.846-7.826-89.866-25.987
		c-15.553-10.55-28.877-24.122-40.418-38.866c-4.161-5.746-8.932-11.178-11.739-17.732c6.918,0.545,14.579-1.073,21.034,1.701
		c10.451,11.706,24.931,19.218,40.104,22.768c35.432,8.107,73.24,5.845,107.351-6.786
		C704.103,563.689,724.262,554.195,733.772,535.323z"/>
	<path fill="#FEFEFE" stroke="#FEFEFE" stroke-width="0.5" d="M613.807,550.579c40.186-3.286,80.059-9.692,119.965-15.256
		c-9.51,18.872-29.669,28.365-48.392,35.729c-34.111,12.631-71.92,14.892-107.351,6.786c-15.173-3.55-29.653-11.062-40.104-22.768
		C563.219,553.502,588.612,553.683,613.807,550.579z"/>
	<path fill="#AF3317" stroke="#AF3317" stroke-width="0.5" d="M163.633,619.791c0.776-0.297,2.345-0.892,3.137-1.189
		c1.767,2.625,3.087,5.581,3.996,8.668c-17.435,8.751-35.2,16.758-52.668,25.426c-6.687,2.741-12.746,7.562-20.06,8.371
		c-1.453-3.517-2.955-7-3.863-10.666c0.644-0.396,1.915-1.189,2.559-1.585C119.186,639.538,141.277,629.351,163.633,619.791z"/>
	<path fill="#EC6E3E" stroke="#EC6E3E" stroke-width="0.5" d="M170.765,627.27c2.741-1.189,5.498-2.988,8.619-2.741
		c23.891,49.911,57.456,96.008,101.506,129.987c53.015,41.276,120.692,63.863,187.922,61.287
		c-11.458,29.785-11.095,62.212-10.633,93.615c-68.403-0.578-137.02-18.607-195.765-54.006
		c-74.132-43.753-131.291-112.783-167.664-190.184c0.627-1.684,1.783-3.219,3.286-4.161c7.314-0.809,13.374-5.63,20.06-8.371
		C135.565,644.029,153.33,636.021,170.765,627.27z"/>
	<path fill="#EC6E3E" stroke="#EC6E3E" stroke-width="0.5" d="M499.175,759.85c36.092-11.326,74-15.569,111.66-17.221
		c8.041,0.033,16.131-0.776,24.171,0.099c0.033,5.234-2.146,11.326,1.783,15.768c15.305,17.815,44.892,20.622,62.971,5.382
		c6.687-4.887,3.203-14.182,5.515-21.067c8.833-1.172,17.765-0.132,26.648-0.148c37.66,1.503,75.568,5.911,111.66,17.187
		c-3.137,5.514-7.76,9.972-11.855,14.777c-31.287-11.541-63.301-21.992-96.454-26.367c0.314,15.355,3.946,30.445,4.838,45.784
		c2.658,23.032,3.599,46.213,4.887,69.361c1.701,22.504,0.677,45.107,0.941,67.676c0.545,22.619-2.146,45.14-2.856,67.726
		c-3.963,51.314-10.286,102.761-24.254,152.425c-2.972,10.996-7.397,21.513-10.484,32.493c-25.773-0.099-51.546,0-77.302-0.033
		c-12.531-32.08-20.44-65.745-25.657-99.723c-13.192-83.576-14.909-168.622-10.039-252.974c1.816-17.484,2.361-35.101,4.986-52.503
		c1.057-9.477,2.724-18.921,2.741-28.464c-31.106,4.937-61.287,14.694-90.444,26.417
		C507.975,771.044,503.005,765.843,499.175,759.85 M662.893,786.448c-15.223,4.639-22.784,24.27-14.562,37.941
		c6.323,12.284,22.933,16.89,35.035,10.633c12.432-5.779,17.98-22.289,12.02-34.523C690.251,788.363,675.259,781.94,662.893,786.448
		 M664.56,860.943c-10.616,2.939-19.07,12.647-19.466,23.825c-1.42,13.819,9.956,27.094,23.742,28.101
		c14.859,1.849,29.702-11.26,28.86-26.4C698.605,869.661,680.46,856.304,664.56,860.943 M664.428,943.132
		c-9.642,2.51-17.419,11.079-19.02,20.919c-2.757,13.605,6.967,27.837,20.473,30.594c15.602,3.665,32.443-9.444,31.832-25.641
		C698.787,952.081,680.51,938.113,664.428,943.132 M666.228,1017.776c-11.855,2.146-21.398,13.39-21.199,25.525
		c-0.677,13.968,11.508,26.714,25.459,26.879c15.239,1.123,29.009-13.39,27.127-28.53
		C697.086,1026.328,681.104,1014.375,666.228,1017.776z"/>
	<path fill="#FAB421" stroke="#FAB421" stroke-width="0.5" d="M735.275,748.259c33.153,4.375,65.167,14.826,96.454,26.367
		c12.531,6.357,27.424,9.989,36.521,21.48c2.989,3.599,5.944,7.331,8.123,11.524c16.197,35.514,14.43,75.585,13.126,113.658
		c-2.146,37.561-8.255,74.726-14.843,111.743c-10.104,50.472-21.232,100.846-36.174,150.13c-8.883,1.701-18.029,0.743-27.011,1.189
		c-34.358-1.024-68.75,0.198-103.124-0.627c3.087-10.98,7.512-21.497,10.484-32.493c13.968-49.663,20.291-101.11,24.254-152.425
		c0.71-22.586,3.401-45.107,2.856-67.726c-0.264-22.57,0.759-45.173-0.941-67.676c-1.288-23.148-2.229-46.328-4.887-69.361
		C739.221,778.704,735.589,763.614,735.275,748.259z"/>
	<path fill="#FAB421" stroke="#FAB421" stroke-width="0.5" d="M512.631,776.443c29.158-11.722,59.339-21.48,90.444-26.417
		c-0.017,9.543-1.684,18.987-2.741,28.464c-2.625,17.402-3.17,35.019-4.986,52.503c-4.87,84.352-3.153,169.397,10.039,252.974
		c5.217,33.978,13.126,67.643,25.657,99.723c-34.754,0.693-69.526,0-104.263,0.363c-4.887,0.083-9.774,0.413-14.612-0.215
		c-2.807-0.017-2.972-3.17-3.649-5.085c-10.088-35.283-18.839-70.929-26.747-106.757c-11.343-53.609-20.77-107.78-23.594-162.579
		c-0.462-31.403-0.826-63.83,10.633-93.615c4.425-12.069,12.168-23.527,23.676-29.801
		C499.043,782.502,505.895,779.596,512.631,776.443z"/>
	<path fill="#FDFCFA" stroke="#FDFCFA" stroke-width="0.5" d="M662.893,786.448c12.366-4.508,27.358,1.915,32.493,14.05
		c5.96,12.234,0.413,28.745-12.02,34.523c-12.102,6.258-28.712,1.651-35.035-10.633C640.109,810.718,647.67,791.087,662.893,786.448
		 M672.221,794.406c-1.568,2.889-0.925,6.291-1.057,9.461c0.231,8.123-0.149,16.263,0.132,24.403
		c10.682,0.396,19.664-11.392,16.197-21.579C685.595,799.755,679.007,795.463,672.221,794.406z"/>
	<path fill="#EC6D41" stroke="#EC6D41" stroke-width="0.5" d="M672.221,794.406c6.786,1.057,13.373,5.349,15.272,12.284
		c3.467,10.187-5.514,21.975-16.197,21.579c-0.281-8.14,0.099-16.279-0.132-24.403C671.297,800.696,670.653,797.295,672.221,794.406
		z"/>
	<path fill="#EC6E3E" stroke="#EC6E3E" stroke-width="0.5" d="M876.373,807.631c30.132,9.229,59.619,20.754,88.116,34.21
		c29.818,14.216,58.794,31.254,82.717,54.303c17.055,16.676,31.106,37.231,36.934,60.61c5.993,22.983,3.352,47.88-6.356,69.476
		c-28.349,62.641-58.315,124.572-90.263,185.479c-1.767,2.576-2.377,6.505-5.201,8.057c-3.153-0.743-6.043-2.262-8.8-3.847
		c-23.131-13.357-47.022-25.344-70.401-38.271c-3.137-1.998-7.38-2.823-9.609-5.828c2.642-8.536,7.892-16.048,11.805-24.056
		c25.938-50.142,50.473-101.011,73.967-152.342c1.8-4.739,5.696-9.378,5.036-14.612c-6.241-11.59-17.617-19.268-28.15-26.648
		c-20.935-13.274-43.307-24.551-66.669-32.872C890.804,883.216,892.57,843.145,876.373,807.631z"/>
	<path fill="#FDFCFA" stroke="#FDFCFA" stroke-width="0.5" d="M664.56,860.943c15.9-4.64,34.045,8.717,33.136,25.525
		c0.842,15.14-14.001,28.249-28.86,26.4c-13.786-1.007-25.162-14.282-23.742-28.101C645.491,873.59,653.944,863.882,664.56,860.943
		 M671.214,870.271c0.017,10.798,0,21.612,0,32.427c8.949,1.304,17.435-7.347,16.659-16.246
		C688.55,877.553,680.13,869.198,671.214,870.271z"/>
	<path fill="#EC6D3F" stroke="#EC6D3F" stroke-width="0.5" d="M671.214,870.271c8.916-1.073,17.336,7.281,16.659,16.18
		c0.776,8.899-7.711,17.551-16.659,16.246C671.214,891.884,671.231,881.069,671.214,870.271z"/>
	<path fill="#FDFCFA" stroke="#FDFCFA" stroke-width="0.5" d="M664.428,943.132c16.081-5.019,34.358,8.949,33.285,25.872
		c0.611,16.197-16.23,29.306-31.832,25.641c-13.506-2.757-23.23-16.989-20.473-30.594
		C647.01,954.211,654.786,945.642,664.428,943.132 M671.214,952.857c-0.033,10.781,0.033,21.563,0.033,32.361
		c10.93,0.528,19.713-11.326,16.18-21.629C685.215,957.249,678.248,950.859,671.214,952.857z"/>
	<path fill="#EC6D3F" stroke="#EC6D3F" stroke-width="0.5" d="M671.214,952.857c7.034-1.998,14.001,4.392,16.213,10.732
		c3.533,10.303-5.25,22.157-16.18,21.629C671.247,974.42,671.181,963.638,671.214,952.857z"/>
	<path fill="#FDFCFA" stroke="#FDFCFA" stroke-width="0.5" d="M666.228,1017.776c14.876-3.401,30.858,8.552,31.386,23.874
		c1.882,15.14-11.888,29.653-27.127,28.53c-13.951-0.165-26.136-12.911-25.459-26.879
		C644.831,1031.166,654.373,1019.922,666.228,1017.776 M671.264,1027.171c0.049,10.699-0.264,21.447,0.115,32.162l0.925,1.156
		c9.18-0.363,17.022-9.262,15.751-18.426C687.262,1033.775,679.601,1026.906,671.264,1027.171z"/>
	<path fill="#EB6E3F" stroke="#EB6E3F" stroke-width="0.5" d="M671.264,1027.171c8.338-0.264,15.999,6.604,16.791,14.892
		c1.271,9.163-6.571,18.063-15.751,18.426l-0.925-1.156C671,1048.618,671.313,1037.869,671.264,1027.171z"/>
	<path fill="#AE3316" stroke="#AE3316" stroke-width="0.5" d="M903.12,1177.647c23.379,12.928,47.27,24.914,70.401,38.271
		c-1.337,2.113-1.932,5.184-4.458,6.257c-0.76-0.38-2.311-1.139-3.071-1.519c-21.15-11.855-42.465-23.412-63.846-34.821
		C898.25,1184.169,902.13,1180.057,903.12,1177.647z"/>
	<path fill="#E63C1B" stroke="#E63C1B" stroke-width="0.5" d="M526.781,1184.053c34.738-0.363,69.509,0.33,104.263-0.363
		c25.757,0.033,51.529-0.066,77.302,0.033c34.375,0.825,68.766-0.396,103.124,0.627c-5.812,10.055-15.602,16.824-25.228,22.85
		l-0.644,1.238c15.602,52.025,31.964,103.834,47.732,155.826c1.37,4.87,3.649,9.427,5.894,13.984
		c9.659,20.374,8.949,45.156-1.503,65.117c-11.062,21.315-31.073,36.323-52.19,46.774c-12.598,5.861-25.228,11.689-37.677,17.831
		c-7.116-5.548-10.765-14.05-16.065-21.1c-10.121-17.798-17.286-37.165-21.579-57.159c12.928-5.663,25.608-11.888,38.42-17.815
		c3.071-1.833,8.866-3.798,6.34-8.387c-18.855-61.617-38.04-123.168-56.747-184.835c-0.759-2.576-4.078-2.097-6.092-2.46
		c-5.382-0.297-10.831-0.215-16.098,0.892l-0.231,1.453c-1.09,16.395-0.198,32.872-0.479,49.3c0,51.182,0,102.365,0,153.547
		c-0.083,7.793-0.066,15.586,0.479,23.362c-1.899,0.974-3.764,1.998-5.614,3.038c-5.135-0.892-10.649-1.816-15.404,0.875
		c-11.112,5.3-22.157,10.732-33.566,15.355c-5.828,2.939-15.256,5.317-14.793,13.506c-0.677,8.074,3.021,15.503,4.606,23.247
		c-1.288,0.05-3.847,0.165-5.135,0.231c-2.79-0.545-5.531-1.073-8.255-1.568c0.859-0.198,2.576-0.594,3.451-0.809
		c-3.418-1.816-7.331-2.262-10.897-3.599c-1.321-6.868-0.578-13.885-0.611-20.803c-0.017-78.705-0.033-157.411,0-236.1
		c-0.198-6.802,0.991-13.852-1.337-20.374c-4.739-2.625-10.402-2.443-15.503-3.913
		C554.518,1209.942,536.934,1200.085,526.781,1184.053z"/>
	<path fill="#FDDBC2" stroke="#FDDBC2" stroke-width="0.5" d="M902.146,1185.836c21.381,11.409,42.696,22.966,63.846,34.821
		c0.528,15.371-0.66,31.552-8.552,45.123c-2.741,5.283-7.958,8.635-10.963,13.72c-6.654,11.656-12.763,23.61-19.334,35.299
		c-4.045,5.977-15.734,2.262-13.77-5.432c3.137-8.883,8.453-16.808,12.845-25.096c1.123-2.245,2.625-4.887,0.908-7.215
		c-1.668-0.743-3.335-0.908-5.036-0.528c-4.672,5.118-6.984,11.822-10.534,17.683c-5.201,8.668-9.576,17.782-14.694,26.483
		c-2.509,5.663-12.432,5.003-14.001-1.04c-1.288-2.724,0.578-5.416,1.602-7.826c6.67-13.506,14.479-26.4,21.447-39.724
		c1.948-3.302-1.899-7.512-5.284-7c-3.434,4.524-5.646,9.824-8.255,14.843c-5.3,10.963-11.788,21.298-17.484,32.063
		c-1.882,3.005-3.616,7.479-7.876,7.265c-5.267,1.189-10.22-4.739-7.974-9.659c2.592-6.522,6.67-12.317,9.592-18.673
		c5.614-11.59,13.423-22.207,17.699-34.375c-2.708-1.205-6.951-3.401-8.552,0.462c-5.861,10.732-11.838,21.398-17.353,32.328
		c-2.212,3.731-4.474,9.328-9.84,8.206c-5.531,0.165-8.899-6.373-6.175-10.979c7.215-15.503,16.824-29.735,24.171-45.156
		c2.014-4.342,1.651-9.362,0.743-13.885c-7.413-3.104-15.603-1.568-23.296-3.038c-5.696-4.507-4.887-14.958,1.387-18.459
		c9.13-0.182,18.244,1.09,27.358,1.552c3.764-2.675,6.687-6.34,10.319-9.196C890.407,1193.695,897.11,1190.872,902.146,1185.836z"/>
	<path fill="#B43923" stroke="#B43923" stroke-width="0.5" d="M676.035,1217.107c5.267-1.106,10.716-1.189,16.098-0.892
		c2.014,0.363,5.333-0.115,6.092,2.46c-7.479-0.132-14.959-0.049-22.421-0.115L676.035,1217.107z"/>
	<path fill="#C63C20" stroke="#C63C20" stroke-width="0.5" d="M588.249,1217.768c2.328,6.521,1.139,13.572,1.337,20.374
		c-0.033,78.689-0.017,157.394,0,236.1c0.033,6.918-0.71,13.935,0.611,20.803c3.566,1.338,7.479,1.783,10.897,3.599
		c-0.875,0.215-2.592,0.611-3.451,0.809c-3.286-0.611-6.522-1.255-9.758-1.833c-0.727-89.223-0.05-178.478-0.33-267.717
		C587.506,1225.825,587.523,1221.746,588.249,1217.768z"/>
	<path fill="#FAB418" stroke="#FAB418" stroke-width="0.5" d="M675.804,1444.77c11.557-4.788,22.619-10.765,34.408-15.057
		c4.293,19.994,11.458,39.361,21.579,57.159c-13.984,6.257-27.936,12.564-41.705,19.235c-11.772-17.072-19.086-37.545-19.895-58.299
		C672.04,1446.768,673.905,1445.744,675.804,1444.77z"/>
	<path fill="#EC6E3E" stroke="#EC6E3E" stroke-width="0.5" d="M654.786,1448.683c4.755-2.691,10.27-1.767,15.404-0.875
		c0.809,20.754,8.123,41.227,19.895,58.299c0.33,7.33-0.974,14.661-0.545,22.008c7.842,5.828,15.602,11.772,22.504,18.772
		l0.215,1.403c0.132,5.514-0.017,11.062-0.594,16.593c-8.503-7.149-15.272-17.072-25.872-21.266c-1.8,4.59-3.186,9.411-3.467,14.364
		c9.362,4.392,18.839,8.751,26.813,15.536c0.115,4.755-1.222,9.378-2.708,13.869c-7.397-6.901-15.404-13.539-25.228-16.56
		c-10.187-3.979-21.348-3.781-31.997-2.361c-2.377,0-5.63,1.156-6.753-1.734c-10.451-18.739-9.378-40.814-11.095-61.501
		c-2.212-13.935-3.93-28.365-10.137-41.194C632.629,1459.415,643.675,1453.983,654.786,1448.683 M649.833,1471.814
		c-7.364,2.559-11.409,11.755-7.099,18.607c4.524,8.916,19.449,7.809,22.487-1.816
		C669.728,1479.31,659.277,1468.644,649.833,1471.814z"/>
	<path fill="#BDBEBD" stroke="#BDBEBD" stroke-width="0.5" d="M665.815,1602.825c-7.892-9.84-16.197-19.681-21.431-31.221
		c0.743-1.948,3.186-2.212,4.821-3.137c-2.377,0-5.63,1.156-6.753-1.734c-10.451-18.739-9.378-40.814-11.095-61.501
		c-2.212-13.935-3.93-28.365-10.137-41.194c-5.828,2.939-15.256,5.317-14.793,13.506c-0.677,8.074,3.021,15.503,4.606,23.247
		c-1.288,0.05-3.847,0.165-5.135,0.231c2.047,0.545,4.161,1.024,6.109,2.047c3.583,12.119-0.215,25.063,1.767,37.512
		c0.149-2.526,0.446-4.986,0.892-7.397c2.642,4.59,2.262,10.137,3.137,15.256c2.493,7.479,4.392,15.157,7.364,22.504
		c3.748,10.022,9.939,18.905,13.885,28.827c-3.566,4.606-10.286,5.019-15.223,7.661c-14.595,6.786-30.66,10.302-46.774,9.279
		c-10.774,0.283-21.467-1.55-31.861-4.261c-5.135-1.339-10.212-2.894-15.264-4.516c-4.351-1.397-9.989-4.448-14.493-4.573
		c0.08,4.411,0.772,8.902,1.176,13.302c0.064,0.695,0.132,1.408,0.443,2.034c1.003,2.019,4.623,3.307,6.487,4.505
		c2.961,1.903,6.963,5.097,10.355,6.024c22.289,6.093,45.668,6.588,68.469,3.401c6.555-1.981,13.176-3.715,19.862-5.234
		c9.18-4.029,18.525-8.371,28.613-9.411c6.835-0.793,11.607,5.696,18.145,6.505c2.628,0.03,5.378-0.481,7.781-1.642
		c0.042-0.031,0.081-0.066,0.122-0.096c0.662-0.483,1.33-0.87,2.006-1.195c0.766-0.57,1.48-1.212,2.093-1.97
		C677.092,1613.012,670.405,1608.835,665.815,1602.825z"/>
	<path fill="#FEFCFA" stroke="#FEFCFA" stroke-width="0.5" d="M649.833,1471.814c9.444-3.17,19.895,7.496,15.388,16.791
		c-3.038,9.626-17.963,10.732-22.487,1.816C638.424,1483.57,642.469,1474.373,649.833,1471.814z"/>
	<path fill="#E6E7E6" stroke="#E6E7E6" stroke-width="0.5" d="M690.086,1506.107c13.77-6.67,27.721-12.977,41.705-19.235
		c5.3,7.05,8.949,15.553,16.065,21.1c-11.904,7.71-25.591,12.135-37.825,19.284l-1.139,0.727c0.149,6.406,2.658,12.482,3.154,18.904
		c-6.901-7-14.661-12.944-22.504-18.772C689.112,1520.768,690.416,1513.437,690.086,1506.107z"/>
	<path fill="#E7E7E6" stroke="#E7E7E6" stroke-width="0.5" d="M586.482,1497.422l1.404,0.198c3.236,0.578,6.472,1.222,9.758,1.833
		c2.724,0.495,5.465,1.024,8.255,1.568c2.047,0.545,4.161,1.024,6.109,2.047c3.583,12.119-0.215,25.063,1.767,37.512
		c0.132,2.46,0.413,4.953,0.727,7.479c-10.847,0.05-20.473-6.505-31.221-6.208c3.946-3.219,2.708-8.685,2.972-13.126
		C586.433,1518.291,584.831,1507.79,586.482,1497.422z"/>
	<path fill="#B64C45" stroke="#B64C45" stroke-width="0.5" d="M614.666,1533.183c2.642,4.59,2.262,10.137,3.137,15.256
		c-0.826-0.099-2.477-0.281-3.302-0.38c-0.314-2.526-0.595-5.019-0.727-7.479C613.923,1538.054,614.22,1535.594,614.666,1533.183z"
		/>
	<path fill="#EC6E3F" stroke="#EC6E3F" stroke-width="0.5" d="M569.394,1545.418c4.474-1.684,9.097-3.104,13.885-3.566
		c10.748-0.297,20.374,6.257,31.221,6.208c0.826,0.099,2.477,0.281,3.302,0.38c2.493,7.479,4.392,15.157,7.364,22.504
		c3.748,10.022,9.939,18.905,13.885,28.827c-3.566,4.606-10.286,5.019-15.223,7.661c-14.595,6.786-30.66,10.302-46.774,9.279
		c-3.154-11.789-7.166-24.072-16.362-32.608c-6.885-8.041-16.444-12.614-25.822-17.006c1.668-1.635,3.368-3.219,5.036-4.821
		c1.453-1.42,2.988-2.757,4.54-4.045c10.005,4.705,18.591,11.607,27.011,18.64c2.823-1.502,5.366-3.451,7.942-5.349
		c0.908,4.887,2.922,10.352,8.09,12.152c7.942,3.352,18.145-3.088,17.386-11.987c0.231-5.614-4.276-9.411-8.453-12.251
		C588.497,1552.881,578.97,1548.869,569.394,1545.418z"/>
	<path fill="#BEBDBC" stroke="#BEBDBC" stroke-width="0.5" d="M556.334,1550.503c4.194-2.014,8.387-4.408,13.06-5.085
		c9.576,3.451,19.103,7.463,27.028,14.017c-5.795-0.396-11.293,1.503-15.305,5.729c-9.246-4.705-19.136-7.974-28.266-12.845
		C553.726,1551.857,555.459,1550.949,556.334,1550.503z"/>
	<path fill="#E8E8E5" stroke="#E8E8E5" stroke-width="0.5" d="M544.447,1558.23c2.526-2.345,5.267-4.458,8.404-5.911
		c9.13,4.87,19.02,8.14,28.266,12.845c-0.594,2.08-1.172,4.194-1.717,6.357c-2.576,1.899-5.118,3.847-7.942,5.349
		C563.038,1569.837,554.452,1562.935,544.447,1558.23z"/>
	<path fill="#FDFDFA" stroke="#FDFDFA" stroke-width="0.5" d="M581.116,1565.164c4.012-4.227,9.51-6.125,15.305-5.729
		c4.177,2.84,8.685,6.637,8.453,12.251c0.76,8.899-9.444,15.338-17.386,11.987c-5.168-1.8-7.182-7.265-8.09-12.152
		C579.944,1569.358,580.522,1567.245,581.116,1565.164z"/>
	<path fill="#D2D3D4" stroke="#D2D3D4" stroke-width="0.5" d="M560.693,1584.102c-6.885-8.041-16.444-12.614-25.822-17.006
		c-0.644,0.495-1.965,1.469-2.625,1.948c-2.078,1.507-4.015,5.408-5.519,7.623c-1.917,2.823-3.731,5.718-5.382,8.705
		c-1.721,3.115-3.281,6.331-4.467,9.69c-0.871,2.465-3.075,7.388-1.69,9.931c0.087-0.589,0.174-1.177,0.261-1.766
		c19.958,6.474,40.305,14.042,61.607,13.483C573.901,1604.922,569.889,1592.638,560.693,1584.102z"/>
	<path fill="#D1D2D2" stroke="#D1D2D2" stroke-width="0.5" d="M679.32,1621.205c4.48-3.389,9.098-6.242,13.087-10.277
		c3.989-4.034,7.319-8.753,10.171-13.646c1.423-2.441,4.946-7.122,3.853-9.895c-7.397-6.901-15.404-13.539-25.228-16.56
		c-10.187-3.979-21.348-3.781-31.997-2.361c-1.635,0.925-4.078,1.189-4.821,3.137c5.234,11.541,13.538,21.381,21.431,31.221
		c4.59,6.01,11.277,10.187,15.173,16.758C680.499,1620.188,679.94,1620.736,679.32,1621.205z"/>
</g>
</svg>
